<svg width="210" height="29" viewBox="0 0 210 29" fill="none" xmlns="http://www.w3.org/2000/svg">
<path d="M17.0881 19.0684L21.2696 23.4797C21.6711 23.9033 21.6582 24.5818 21.2408 24.989C20.8299 25.3898 20.1811 25.3768 19.7859 24.9596L15.6013 20.5434C14.1789 21.6372 12.5749 22.239 10.7894 22.349C9.59632 22.4225 8.44086 22.2568 7.32304 21.8519C6.20522 21.4471 5.23006 20.8699 4.39755 20.1205C3.56504 19.3711 2.88397 18.4572 2.35435 17.379C1.82472 16.3007 1.52444 15.1558 1.45352 13.9445C1.38259 12.7332 1.5472 11.5597 1.94733 10.4241C2.34746 9.28858 2.91706 8.29768 3.65612 7.45146C4.39518 6.60524 5.29603 5.91255 6.35867 5.3734C7.42131 4.83424 8.54915 4.52792 9.74218 4.45443C10.9352 4.38095 12.0907 4.54663 13.2085 4.95148C14.3264 5.35633 15.3016 5.93346 16.134 6.68289C16.9665 7.43231 17.6475 8.34617 18.1772 9.42446C18.7069 10.5028 19.0072 11.6476 19.0781 12.8589C19.1231 13.6275 19.0724 14.3852 18.9262 15.132C18.78 15.8788 18.5506 16.5805 18.2381 17.2369C17.9255 17.8934 17.5422 18.5039 17.0881 19.0684ZM10.6663 20.2437C11.5796 20.1874 12.4411 19.952 13.2509 19.5374C14.0606 19.1228 14.748 18.5921 15.3129 17.9452C15.8779 17.2984 16.3146 16.5421 16.6232 15.6763C16.9317 14.8104 17.0589 13.9139 17.0046 12.9866C16.9504 12.0593 16.7196 11.1848 16.3122 10.363C15.9049 9.54132 15.3831 8.84402 14.7468 8.27115C14.1105 7.69828 13.3662 7.25575 12.5138 6.94356C11.6615 6.63136 10.7787 6.50339 9.86543 6.55964C8.95212 6.6159 8.09058 6.85131 7.2808 7.26588C6.47103 7.68046 5.78365 8.21119 5.21868 8.85808C4.65372 9.50498 4.21697 10.2613 3.90844 11.1271C3.59992 11.9928 3.47279 12.8894 3.52706 13.8167C3.58133 14.7441 3.81211 15.6186 4.21938 16.4403C4.62666 17.2619 5.1485 17.9592 5.78488 18.5321C6.42127 19.105 7.16558 19.5475 8.01783 19.8597C8.87007 20.1719 9.75288 20.2999 10.6663 20.2437Z" fill="white"/>
<path d="M65.146 21.27C63.406 21.27 61.912 20.67 60.664 19.47C59.428 18.27 58.81 16.65 58.81 14.61C58.81 13.242 59.122 12.042 59.746 11.01C60.37 9.978 61.156 9.216 62.104 8.724C63.052 8.22 64.066 7.968 65.146 7.968C66.586 7.968 67.798 8.334 68.782 9.066C69.778 9.786 70.438 10.77 70.762 12.018L69.124 12.594C68.884 11.634 68.422 10.896 67.738 10.38C67.054 9.852 66.19 9.588 65.146 9.588C63.898 9.588 62.83 10.032 61.942 10.92C61.054 11.796 60.61 13.026 60.61 14.61C60.61 16.194 61.054 17.43 61.942 18.318C62.83 19.206 63.898 19.65 65.146 19.65C66.19 19.65 67.06 19.374 67.756 18.822C68.452 18.258 68.938 17.514 69.214 16.59L70.78 17.166C70.432 18.402 69.76 19.398 68.764 20.154C67.78 20.898 66.574 21.27 65.146 21.27ZM78.1144 19.956C77.8864 20.388 77.5384 20.718 77.0704 20.946C76.6024 21.162 76.0984 21.27 75.5584 21.27C74.5744 21.27 73.7884 20.946 73.2004 20.298C72.6124 19.638 72.3184 18.804 72.3184 17.796V12.342H74.0104V17.544C74.0104 18.192 74.1664 18.726 74.4784 19.146C74.8024 19.566 75.3004 19.776 75.9724 19.776C76.6444 19.776 77.1544 19.578 77.5024 19.182C77.8504 18.774 78.0244 18.234 78.0244 17.562V12.342H79.7164V19.398C79.7164 19.962 79.7464 20.496 79.8064 21H78.1864C78.1384 20.736 78.1144 20.388 78.1144 19.956ZM81.6137 18.75L83.1437 18.21C83.2037 18.678 83.4077 19.068 83.7557 19.38C84.1037 19.68 84.5717 19.83 85.1597 19.83C85.6157 19.83 85.9757 19.722 86.2397 19.506C86.5037 19.278 86.6357 19.002 86.6357 18.678C86.6357 18.102 86.2637 17.73 85.5197 17.562L84.0437 17.238C83.3717 17.094 82.8437 16.806 82.4597 16.374C82.0757 15.942 81.8837 15.42 81.8837 14.808C81.8837 14.064 82.1837 13.422 82.7837 12.882C83.3957 12.342 84.1217 12.072 84.9617 12.072C85.5137 12.072 86.0057 12.156 86.4377 12.324C86.8697 12.48 87.2057 12.69 87.4457 12.954C87.6857 13.218 87.8657 13.464 87.9857 13.692C88.1057 13.92 88.1957 14.154 88.2557 14.394L86.7617 14.952C86.7377 14.808 86.6957 14.67 86.6357 14.538C86.5757 14.394 86.4797 14.238 86.3477 14.07C86.2277 13.902 86.0477 13.77 85.8077 13.674C85.5677 13.566 85.2857 13.512 84.9617 13.512C84.5417 13.512 84.1937 13.626 83.9177 13.854C83.6537 14.082 83.5217 14.352 83.5217 14.664C83.5217 15.216 83.8517 15.564 84.5117 15.708L85.9157 16.014C86.6837 16.182 87.2717 16.494 87.6797 16.95C88.0997 17.394 88.3097 17.94 88.3097 18.588C88.3097 19.272 88.0277 19.89 87.4637 20.442C86.9117 20.994 86.1377 21.27 85.1417 21.27C84.0737 21.27 83.2397 21.006 82.6397 20.478C82.0397 19.938 81.6977 19.362 81.6137 18.75ZM92.6504 9.606V12.342H94.5224V13.872H92.6504V18.372C92.6504 18.78 92.7404 19.08 92.9204 19.272C93.1124 19.464 93.4244 19.56 93.8564 19.56C94.1084 19.56 94.3304 19.536 94.5224 19.488V20.928C94.2344 21.036 93.8504 21.09 93.3704 21.09C92.6264 21.09 92.0384 20.874 91.6064 20.442C91.1744 20.01 90.9584 19.404 90.9584 18.624V13.872H89.3024V12.342H89.7704C90.2144 12.342 90.5444 12.222 90.7604 11.982C90.9884 11.73 91.1024 11.406 91.1024 11.01V9.606H92.6504ZM98.295 18.948C98.823 19.488 99.465 19.758 100.221 19.758C100.977 19.758 101.613 19.488 102.129 18.948C102.657 18.396 102.921 17.634 102.921 16.662C102.921 15.702 102.657 14.952 102.129 14.412C101.613 13.86 100.977 13.584 100.221 13.584C99.465 13.584 98.823 13.86 98.295 14.412C97.779 14.952 97.521 15.702 97.521 16.662C97.521 17.634 97.779 18.396 98.295 18.948ZM97.035 13.386C97.875 12.51 98.937 12.072 100.221 12.072C101.505 12.072 102.561 12.51 103.389 13.386C104.229 14.25 104.649 15.342 104.649 16.662C104.649 17.994 104.235 19.098 103.407 19.974C102.579 20.838 101.517 21.27 100.221 21.27C98.925 21.27 97.863 20.838 97.035 19.974C96.207 19.098 95.793 17.994 95.793 16.662C95.793 15.342 96.207 14.25 97.035 13.386ZM108.308 21H106.634V12.342H108.254V13.494C108.518 13.038 108.89 12.69 109.37 12.45C109.85 12.21 110.354 12.09 110.882 12.09C111.446 12.09 111.962 12.228 112.43 12.504C112.898 12.78 113.246 13.188 113.474 13.728C114.074 12.636 115.04 12.09 116.372 12.09C117.2 12.09 117.902 12.372 118.478 12.936C119.066 13.5 119.36 14.316 119.36 15.384V21H117.686V15.564C117.686 14.964 117.53 14.484 117.218 14.124C116.918 13.764 116.462 13.584 115.85 13.584C115.262 13.584 114.782 13.794 114.41 14.214C114.038 14.622 113.852 15.138 113.852 15.762V21H112.16V15.564C112.16 14.964 112.004 14.484 111.692 14.124C111.392 13.764 110.936 13.584 110.324 13.584C109.724 13.584 109.238 13.788 108.866 14.196C108.494 14.604 108.308 15.132 108.308 15.78V21ZM127.989 18.948C128.517 19.488 129.159 19.758 129.915 19.758C130.671 19.758 131.307 19.488 131.823 18.948C132.351 18.396 132.615 17.634 132.615 16.662C132.615 15.702 132.351 14.952 131.823 14.412C131.307 13.86 130.671 13.584 129.915 13.584C129.159 13.584 128.517 13.86 127.989 14.412C127.473 14.952 127.215 15.702 127.215 16.662C127.215 17.634 127.473 18.396 127.989 18.948ZM126.729 13.386C127.569 12.51 128.631 12.072 129.915 12.072C131.199 12.072 132.255 12.51 133.083 13.386C133.923 14.25 134.343 15.342 134.343 16.662C134.343 17.994 133.929 19.098 133.101 19.974C132.273 20.838 131.211 21.27 129.915 21.27C128.619 21.27 127.557 20.838 126.729 19.974C125.901 19.098 125.487 17.994 125.487 16.662C125.487 15.342 125.901 14.25 126.729 13.386ZM141.134 12.252V14.052C140.882 14.016 140.636 13.998 140.396 13.998C138.812 13.998 138.02 14.886 138.02 16.662V21H136.328V12.342H137.984V13.854C138.512 12.75 139.376 12.198 140.576 12.198C140.768 12.198 140.954 12.216 141.134 12.252ZM143.678 16.644C143.678 17.556 143.9 18.3 144.344 18.876C144.8 19.452 145.424 19.74 146.216 19.74C146.972 19.74 147.578 19.446 148.034 18.858C148.49 18.27 148.718 17.52 148.718 16.608C148.718 15.708 148.496 14.982 148.052 14.43C147.608 13.878 147.002 13.602 146.234 13.602C145.466 13.602 144.848 13.884 144.38 14.448C143.912 15.012 143.678 15.744 143.678 16.644ZM148.736 19.83V19.686C148.508 20.13 148.16 20.502 147.692 20.802C147.236 21.09 146.69 21.234 146.054 21.234C144.818 21.234 143.822 20.802 143.066 19.938C142.322 19.062 141.95 17.964 141.95 16.644C141.95 15.384 142.334 14.316 143.102 13.44C143.87 12.552 144.854 12.108 146.054 12.108C146.762 12.108 147.338 12.252 147.782 12.54C148.226 12.816 148.532 13.158 148.7 13.566V7.968H150.374V19.398C150.374 19.986 150.404 20.52 150.464 21H148.826C148.766 20.664 148.736 20.274 148.736 19.83ZM154.17 15.78H158.904C158.88 15.132 158.664 14.604 158.256 14.196C157.848 13.776 157.272 13.566 156.528 13.566C155.856 13.566 155.304 13.788 154.872 14.232C154.44 14.664 154.206 15.18 154.17 15.78ZM159.156 18.03L160.614 18.534C160.362 19.338 159.894 19.998 159.21 20.514C158.526 21.018 157.698 21.27 156.726 21.27C155.514 21.27 154.482 20.856 153.63 20.028C152.79 19.188 152.37 18.06 152.37 16.644C152.37 15.324 152.778 14.232 153.594 13.368C154.41 12.504 155.382 12.072 156.51 12.072C157.818 12.072 158.838 12.486 159.57 13.314C160.302 14.13 160.668 15.228 160.668 16.608C160.668 16.824 160.656 17.004 160.632 17.148H154.116C154.128 17.916 154.38 18.546 154.872 19.038C155.376 19.53 155.994 19.776 156.726 19.776C157.962 19.776 158.772 19.194 159.156 18.03ZM167.453 12.252V14.052C167.201 14.016 166.955 13.998 166.715 13.998C165.131 13.998 164.339 14.886 164.339 16.662V21H162.647V12.342H164.303V13.854C164.831 12.75 165.695 12.198 166.895 12.198C167.087 12.198 167.273 12.216 167.453 12.252Z" fill="white"/>
<path d="M190 19.5L183 12.5L197 12.5L190 19.5Z" fill="white"/>
</svg>
