<svg width="986" height="48" viewBox="0 0 986 48" fill="none" xmlns="http://www.w3.org/2000/svg">
<line y1="47.5" x2="986" y2="47.5" stroke="#666666"/>
<path d="M27.178 22.09V20.418H30.346L31.138 16.744H32.986L32.194 20.418H35.318L36.11 16.744H37.958L37.166 20.418H40.136V22.09H36.814L36.066 25.61H39.058V27.282H35.692L34.9 31H33.052L33.844 27.282H30.72L29.928 31H28.08L28.872 27.282H26.1V25.61H29.246L29.994 22.09H27.178ZM31.842 22.09L31.094 25.61H34.218L34.966 22.09H31.842Z" fill="#B3B3B3"/>
<path d="M70.312 20.112H66.52V30H64.952V20.112H61.16V18.656H70.312V20.112ZM74.9488 30H73.3488V18.656H74.9488V30ZM87.1451 20.112H83.3531V30H81.7851V20.112H77.9931V18.656H87.1451V20.112ZM97.1099 30H90.1819V18.656H91.7499V28.528H97.1099V30ZM107.284 30H100.388V18.656H107.284V20.112H101.956V23.6H106.788V25.072H101.956V28.544H107.284V30Z" fill="#B3B3B3"/>
<path d="M409.296 30L408.064 26.832H403.04L401.84 30H400.16L404.672 18.656H406.48L410.992 30H409.296ZM405.536 20.288L403.6 25.376H407.504L405.536 20.288ZM420.964 30H414.036V18.656H415.604V28.528H420.964V30ZM424.242 18.656H427.938C428.994 18.656 429.826 18.9387 430.434 19.504C431.053 20.0693 431.362 20.8107 431.362 21.728C431.362 22.3147 431.207 22.8213 430.898 23.248C430.589 23.6747 430.178 23.984 429.666 24.176C430.295 24.336 430.791 24.672 431.154 25.184C431.527 25.6853 431.714 26.2613 431.714 26.912C431.714 27.808 431.389 28.5493 430.738 29.136C430.087 29.712 429.245 30 428.21 30H424.242V18.656ZM425.81 23.616H427.762C428.381 23.616 428.871 23.4507 429.234 23.12C429.597 22.7787 429.778 22.3413 429.778 21.808C429.778 21.264 429.591 20.832 429.218 20.512C428.845 20.192 428.338 20.032 427.698 20.032H425.81V23.616ZM425.81 28.624H427.986C428.626 28.624 429.138 28.4587 429.522 28.128C429.917 27.7973 430.114 27.36 430.114 26.816C430.114 26.2507 429.938 25.8027 429.586 25.472C429.234 25.1307 428.722 24.96 428.05 24.96H425.81V28.624ZM442.155 29.152C441.398 29.8773 440.422 30.24 439.227 30.24C438.032 30.24 437.051 29.8773 436.283 29.152C435.526 28.4267 435.147 27.4187 435.147 26.128V18.656H436.699V26.08C436.699 26.944 436.918 27.6107 437.355 28.08C437.803 28.5493 438.427 28.784 439.227 28.784C440.027 28.784 440.646 28.5493 441.083 28.08C441.52 27.6107 441.739 26.944 441.739 26.08V18.656H443.307V26.128C443.307 27.4187 442.923 28.4267 442.155 29.152ZM459.722 30H458.17V21.168L454.298 30H452.858L449.018 21.168V30H447.466V18.656H449.594L453.594 27.888L457.626 18.656H459.722V30Z" fill="#B3B3B3"/>
<path d="M635.008 28.608H637.328C638.437 28.608 639.355 28.24 640.08 27.504C640.816 26.768 641.184 25.7173 641.184 24.352C641.184 22.976 640.821 21.9147 640.096 21.168C639.381 20.4213 638.469 20.048 637.36 20.048H635.008V28.608ZM637.376 30H633.44V18.656H637.408C638.933 18.656 640.213 19.1627 641.248 20.176C642.283 21.1787 642.8 22.5707 642.8 24.352C642.8 26.1227 642.277 27.5093 641.232 28.512C640.187 29.504 638.901 30 637.376 30ZM653.845 30L652.613 26.832H647.589L646.389 30H644.709L649.221 18.656H651.029L655.541 30H653.845ZM650.085 20.288L648.149 25.376H652.053L650.085 20.288ZM665.411 20.112H661.619V30H660.051V20.112H656.259V18.656H665.411V20.112ZM675.344 30H668.447V18.656H675.344V20.112H670.015V23.6H674.847V25.072H670.015V28.544H675.344V30ZM692.48 30L691.248 26.832H686.224L685.024 30H683.344L687.856 18.656H689.664L694.176 30H692.48ZM688.72 20.288L686.784 25.376H690.688L688.72 20.288ZM698.789 28.608H701.109C702.218 28.608 703.135 28.24 703.861 27.504C704.597 26.768 704.965 25.7173 704.965 24.352C704.965 22.976 704.602 21.9147 703.877 21.168C703.162 20.4213 702.25 20.048 701.141 20.048H698.789V28.608ZM701.157 30H697.221V18.656H701.189C702.714 18.656 703.994 19.1627 705.029 20.176C706.063 21.1787 706.581 22.5707 706.581 24.352C706.581 26.1227 706.058 27.5093 705.013 28.512C703.967 29.504 702.682 30 701.157 30ZM711.744 28.608H714.064C715.174 28.608 716.091 28.24 716.816 27.504C717.552 26.768 717.92 25.7173 717.92 24.352C717.92 22.976 717.558 21.9147 716.832 21.168C716.118 20.4213 715.206 20.048 714.096 20.048H711.744V28.608ZM714.112 30H710.176V18.656H714.144C715.67 18.656 716.95 19.1627 717.984 20.176C719.019 21.1787 719.536 22.5707 719.536 24.352C719.536 26.1227 719.014 27.5093 717.968 28.512C716.923 29.504 715.638 30 714.112 30ZM730.028 30H723.132V18.656H730.028V20.112H724.7V23.6H729.532V25.072H724.7V28.544H730.028V30ZM735.437 28.608H737.757C738.866 28.608 739.783 28.24 740.509 27.504C741.245 26.768 741.613 25.7173 741.613 24.352C741.613 22.976 741.25 21.9147 740.525 21.168C739.81 20.4213 738.898 20.048 737.789 20.048H735.437V28.608ZM737.805 30H733.869V18.656H737.837C739.362 18.656 740.642 19.1627 741.677 20.176C742.711 21.1787 743.229 22.5707 743.229 24.352C743.229 26.1227 742.706 27.5093 741.661 28.512C740.615 29.504 739.33 30 737.805 30Z" fill="#B3B3B3"/>
<g clip-path="url(#clip0_131_2987)">
<path fill-rule="evenodd" clip-rule="evenodd" d="M922 24C922 28.9706 917.971 33 913 33C908.029 33 904 28.9706 904 24C904 19.0294 908.029 15 913 15C917.971 15 922 19.0294 922 24ZM924 24C924 30.0751 919.075 35 913 35C906.925 35 902 30.0751 902 24C902 17.9249 906.925 13 913 13C919.075 13 924 17.9249 924 24ZM913.5 18.5H911.5V25.5H917V23.5H913.5V18.5Z" fill="#B3B3B3"/>
</g>
<defs>
<clipPath id="clip0_131_2987">
<rect width="28" height="28" fill="white" transform="translate(899 10)"/>
</clipPath>
</defs>
</svg>
